
<svg width="113px" height="148px" viewBox="0 0 113 148" version="1.1" xmlns="http://www.w3.org/2000/svg" xmlns:xlink="http://www.w3.org/1999/xlink">
    <!-- Generator: Sketch 50.2 (55047) - http://www.bohemiancoding.com/sketch -->
    <desc>Created with Sketch.</desc>
    <defs>
        <filter x="-23.7%" y="-8.1%" width="134.7%" height="125.4%" filterUnits="objectBoundingBox" id="filter-1">
            <feOffset dx="-6" dy="6" in="SourceAlpha" result="shadowOffsetOuter1"></feOffset>
            <feGaussianBlur stdDeviation="4.5" in="shadowOffsetOuter1" result="shadowBlurOuter1"></feGaussianBlur>
            <feColorMatrix values="0 0 0 0 0   0 0 0 0 0   0 0 0 0 0  0 0 0 0.312188632 0" type="matrix" in="shadowBlurOuter1" result="shadowMatrixOuter1"></feColorMatrix>
            <feMerge>
                <feMergeNode in="shadowMatrixOuter1"></feMergeNode>
                <feMergeNode in="SourceGraphic"></feMergeNode>
            </feMerge>
        </filter>
        <linearGradient x1="93.3730577%" y1="18.1393009%" x2="22.917668%" y2="94.9084351%" id="linearGradient-2">
            <stop stop-color="#E92C2C" offset="0%"></stop>
            <stop stop-color="#CE1414" offset="100%"></stop>
        </linearGradient>
    </defs>
    <g id="Page-1" stroke="none" stroke-width="1" fill="none" fill-rule="evenodd">
        <g id="Group-27" filter="url(#filter-1)" transform="translate(15.000000, 3.000000)" fill="url(#linearGradient-2)" fill-rule="nonzero">
            <path d="M13.4914394,120.940595 C13.4914394,120.940595 15.4101515,129.746766 25.2863131,129.746766 L69.9420707,129.746766 C79.8177525,129.746766 81.7364646,120.940595 81.7364646,120.940595 L90.5522727,34.5993309 L4.67611111,34.5993309 L13.4914394,120.940595 Z M64.7895202,47.5742007 C64.7895202,45.1853903 66.7115909,43.2494052 69.0832323,43.2494052 C71.4548737,43.2494052 73.3774242,45.1853903 73.3774242,47.5742007 L69.0832323,112.447584 C69.0832323,114.836394 67.1606818,116.772379 64.7895202,116.772379 C62.4183586,116.772379 60.4958081,114.835911 60.4958081,112.447584 L64.7895202,47.5742007 Z M43.3204798,47.5742007 C43.3204798,45.1853903 45.2430303,43.2494052 47.6141919,43.2494052 C49.9858333,43.2494052 51.907904,45.1853903 51.907904,47.5742007 L51.907904,112.447584 C51.907904,114.836394 49.9858333,116.772379 47.6141919,116.772379 C45.2425505,116.772379 43.3204798,114.835911 43.3204798,112.447584 L43.3204798,47.5742007 Z M26.1451515,43.2489219 C28.5167929,43.2489219 30.4388636,45.1849071 30.4388636,47.5737175 L34.7330556,112.4471 C34.7330556,114.835911 32.8105051,116.771896 30.4388636,116.771896 C28.067702,116.771896 26.1451515,114.835428 26.1451515,112.4471 L21.8514394,47.5742007 C21.8514394,45.1853903 23.7739899,43.2489219 26.1451515,43.2489219 Z M87.9757576,17.3064312 L69.0832323,17.3064312 L69.0832323,8.65007435 C69.0832323,2.08869888 66.9764394,0 60.4958081,0 L34.7325758,0 C28.7883586,0 26.1451515,2.90011152 26.1451515,8.65007435 L26.1451515,17.3069145 L7.25262626,17.3069145 C3.45550505,17.3069145 0.38239899,20.2099257 0.38239899,23.7972491 C0.38239899,27.3850558 3.45550505,30.2880669 7.25262626,30.2880669 L87.9757576,30.2880669 C91.7728788,30.2880669 94.8459848,27.3850558 94.8459848,23.7972491 C94.8459848,20.2099257 91.7728788,17.3064312 87.9757576,17.3064312 Z M60.4958081,17.3064312 L34.7330556,17.3064312 L34.7335354,8.64959108 L60.4962879,8.64959108 L60.4962879,17.3064312 L60.4958081,17.3064312 Z" id="Shape"></path>
        </g>
    </g>
</svg>