
<svg width="121px" height="150px" viewBox="0 0 121 150" version="1.1" xmlns="http://www.w3.org/2000/svg" xmlns:xlink="http://www.w3.org/1999/xlink">
    <!-- Generator: Sketch 50.2 (55047) - http://www.bohemiancoding.com/sketch -->
    <desc>Created with Sketch.</desc>
    <defs>
        <polygon id="path-1" points="0.0416637168 0.0947723659 73.050708 0.0947723659 73.050708 24.3506494 0.0416637168 24.3506494"></polygon>
        <path d="M74.1458407,0.0321428571 L92.9480531,0.0321428571 C103.195575,0.0321428571 111.536106,8.30746753 111.590619,18.561039 C111.591593,18.6292208 111.591593,18.6974026 111.591593,18.7655844 C111.591593,39.2961039 95.0876991,55.9704545 74.6306195,56.2305195 C74.5079646,56.2314935 74.3843363,56.2324675 74.2597345,56.2324675 C74.2237168,56.2324675 74.1886726,56.2334416 74.1526549,56.2334416 L4.78762832,56.2334416 C2.14587611,56.2334416 0.00428318584,54.0905844 0.00428318584,51.4470779 L0.00428318584,37.5 C0.00428318584,27.1529221 8.38667257,18.7655844 18.7267699,18.7655844 L74.0290265,18.7655844 C79.1902655,18.7655844 83.4685841,14.6347403 83.5075221,9.47045455 C83.5454867,4.26428571 79.340177,0.0321428571 74.1458407,0.0321428571" id="path-3"></path>
        <linearGradient x1="8.72367414e-06%" y1="50%" x2="99.9994853%" y2="50%" id="linearGradient-5">
            <stop stop-color="#4570A9" offset="0%"></stop>
            <stop stop-color="#225294" offset="100%"></stop>
        </linearGradient>
        <linearGradient x1="0.01%" y1="0.01%" x2="6.3%" y2="0.01%" id="linearGradient-6">
            <stop stop-color="#4570A9" offset="0%"></stop>
            <stop stop-color="#225294" offset="100%"></stop>
        </linearGradient>
        <path d="M92.8692035,18.7334416 C92.8516814,8.40487013 84.4790265,0.036038961 74.1526549,0.0321428571 C79.3440708,0.036038961 83.5464602,4.26720779 83.5075221,9.4724026 C83.4676106,14.6357143 79.189292,18.7655844 74.0290265,18.7655844 L18.7268673,18.7655844 C8.38667257,18.7655844 0.00428318584,27.1529221 0.00428318584,37.5 L73.9861947,37.5 C84.300885,37.5 92.8857522,29.0551948 92.8692035,18.7334416" id="path-7"></path>
        <linearGradient x1="1.04824413e-05%" y1="49.9987002%" x2="99.9994606%" y2="49.9987002%" id="linearGradient-9">
            <stop stop-color="#4570A9" offset="0%"></stop>
            <stop stop-color="#225294" offset="100%"></stop>
        </linearGradient>
        <path d="M73.8937168,0.0652597403 L4.78762832,0.0652597403 C2.14587611,0.0652597403 0.00428318584,2.20811688 0.00428318584,4.85162338 L0.00428318584,32.7457792 C0.00428318584,35.3892857 2.14587611,37.5321429 4.78762832,37.5321429 L74.1555752,37.5321429 C89.6616814,37.537013 102.229912,50.1165584 102.229912,65.6327922 C102.229912,81.1519481 89.6568142,93.7334416 74.1458407,93.7334416 C100.04646,93.7334416 121.034071,72.6837662 120.952301,46.7483766 C120.870531,20.9006494 99.7261947,0.0652597403 73.8937168,0.0652597403" id="path-10"></path>
        <linearGradient x1="50.000143%" y1="100.00001%" x2="50.000143%" y2="0.000114385542%" id="linearGradient-12">
            <stop stop-color="#4570A9" offset="0%"></stop>
            <stop stop-color="#5AB365" offset="100%"></stop>
        </linearGradient>
        <path d="M73.9063717,0 L0.00428318584,0 L0.00428318584,13.9470779 C0.00428318584,16.5905844 2.14587611,18.7334416 4.78762832,18.7334416 L74.1555752,18.7334416 C89.6616814,18.7392857 102.229912,31.3178571 102.229912,46.8340909 C102.229912,62.3532468 89.6568142,74.9347403 74.1458407,74.9347403 C74.3074336,74.9347403 74.4690265,74.9327922 74.6306195,74.9318182 C95.0662832,74.6717532 111.557522,58.0324675 111.591593,37.5311688 C111.625664,16.8886364 94.5367257,0 73.9063717,0" id="path-13"></path>
        <linearGradient x1="50.0002476%" y1="100.000013%" x2="50.0002476%" y2="0.00040294802%" id="linearGradient-15">
            <stop stop-color="#4570A9" offset="0%"></stop>
            <stop stop-color="#5AB365" offset="100%"></stop>
        </linearGradient>
        <path d="M74.1458407,56.2665584 L92.9480531,56.2665584 C103.195575,56.2665584 111.536106,47.9912338 111.590619,37.7376623 C111.591593,37.6694805 111.591593,37.6012987 111.591593,37.5331169 C111.591593,17.0022078 95.0876991,0.328441558 74.6306195,0.0686688312 C74.5079646,0.0674025974 74.3843363,0.066525974 74.2597345,0.0662337662 C74.2237168,0.0661363636 74.1886726,0.0655519481 74.1526549,0.0655519481 L4.78762832,0.0655519481 C2.14587611,0.0655519481 0.00428318584,2.20840909 0.00428318584,4.85172078 L0.00428318584,18.7991883 C0.00428318584,29.145487 8.38657522,37.5331169 18.7267699,37.5331169 L74.0290265,37.5331169 C79.1902655,37.5331169 83.4685841,41.663961 83.5075221,46.8282468 C83.5454867,52.0344156 79.340177,56.2665584 74.1458407,56.2665584" id="path-16"></path>
        <linearGradient x1="8.72367414e-06%" y1="49.9999307%" x2="99.9994853%" y2="49.9999307%" id="linearGradient-18">
            <stop stop-color="#F2EA56" offset="0%"></stop>
            <stop stop-color="#DA246D" offset="100%"></stop>
        </linearGradient>
        <linearGradient x1="0.01%" y1="0.02%" x2="6.3%" y2="0.02%" id="linearGradient-19">
            <stop stop-color="#F2EA56" offset="0%"></stop>
            <stop stop-color="#DA246D" offset="100%"></stop>
        </linearGradient>
        <path d="M92.8682301,18.7665584 C92.8516814,29.0951299 84.4790265,37.463961 74.1526549,37.4678571 C79.3440708,37.463961 83.5464602,33.2327922 83.5075221,28.0275974 C83.4676106,22.8642857 79.189292,18.7344156 74.0290265,18.7344156 L18.7267699,18.7344156 C8.38667257,18.7344156 0.00428318584,10.3467857 0.00428318584,0.000487012987 L73.9861947,0.000487012987 C84.300885,0.000487012987 92.8857522,8.44480519 92.8682301,18.7665584" id="path-20"></path>
        <linearGradient x1="1.04825509e-05%" y1="50.0006759%" x2="100.000506%" y2="50.0006759%" id="linearGradient-22">
            <stop stop-color="#F2EA56" offset="0%"></stop>
            <stop stop-color="#DA246D" offset="100%"></stop>
        </linearGradient>
        <path d="M73.8937168,93.7334416 L4.78762832,93.7334416 C2.14587611,93.7334416 0.00428318584,91.5905844 0.00428318584,88.9470779 L0.00428318584,61.0529221 C0.00428318584,58.4094156 2.14587611,56.2665584 4.78762832,56.2665584 L74.1555752,56.2665584 C89.6616814,56.2616883 102.229912,43.6821429 102.229912,28.1660065 C102.229912,12.6465584 89.6568142,0.0655519481 74.1458407,0.0655519481 C100.04646,0.0655519481 121.034071,21.1154221 120.952301,47.0503247 C120.870531,72.8980519 99.7261947,93.7334416 73.8937168,93.7334416" id="path-23"></path>
        <linearGradient x1="8.04849414e-06%" y1="49.9998544%" x2="100.000133%" y2="49.9998544%" id="linearGradient-25">
            <stop stop-color="#5AB365" offset="0%"></stop>
            <stop stop-color="#F2EA56" offset="100%"></stop>
        </linearGradient>
        <path d="M73.9063717,75 L0.00428318584,75 L0.00428318584,61.0529221 C0.00428318584,58.4094156 2.14587611,56.2665584 4.78762832,56.2665584 L74.1555752,56.2665584 C89.6616814,56.2607143 102.229912,43.6821429 102.229912,28.1659091 C102.229912,12.646461 89.6568142,0.0655519481 74.1458407,0.0655519481 C74.3074336,0.0655519481 74.4690265,0.0669155844 74.6306195,0.0685714286 C95.0662832,0.32775974 111.557522,16.9674351 111.591593,37.4688312 C111.625664,58.1113636 94.5367257,75 73.9063717,75" id="path-26"></path>
        <linearGradient x1="8.72367016e-06%" y1="50.0004679%" x2="99.9994397%" y2="50.0004679%" id="linearGradient-28">
            <stop stop-color="#5AB365" offset="0%"></stop>
            <stop stop-color="#F2EA56" offset="100%"></stop>
        </linearGradient>
    </defs>
    <g id="Page-1" stroke="none" stroke-width="1" fill="none" fill-rule="evenodd">
        <g id="Group">
            <g id="Group-10" transform="translate(7.398230, 9.155844)">
                <mask id="mask-2" fill="white">
                    <use xlink:href="#path-1"></use>
                </mask>
                <g id="Clip-3"></g>
                <path d="M73.0750442,2.03016234 C63.4816814,3.36701299 58.9337168,2.75094156 53.3130088,0.986298701 C47.6913274,-0.778246753 44.3309735,0.250519481 37.8106018,2.54980519 C31.2903274,4.84918831 22.3153009,0.95211039 15.5701593,0.95211039 C8.82511504,0.95211039 4.7699115,3.28782468 0,3.28782468 L0,8.18181818 L73.0468142,8.18181818 L73.0750442,2.03016234" id="Fill-2" fill="#B0DCDD" mask="url(#mask-2)"></path>
                <path d="M73.0653097,5.51347403 C71.3384071,4.56516234 68.6487611,3.40314935 65.4139823,3.47094156 C62.0263717,3.54194805 61.2106195,4.85873377 57.2360177,5.1599026 C53.0647788,5.47597403 52.519646,4.11564935 48.1439823,4.25074675 C43.1102655,4.4061039 42.8678761,6.22558442 38.6726903,6.21409091 C33.4943186,6.19987013 32.7666637,3.41931818 27.6747345,3.39613636 C22.9740354,3.37470779 22.4742655,5.7375 17.822823,5.62733766 C13.2140177,5.51824675 11.9535929,3.15564935 7.46043363,3.12935065 C4.20530973,3.11025974 1.65486726,4.33032468 0,5.25467532 L0,10.1298701 L73.0750442,10.1298701 L73.0653097,5.51347403" id="Fill-4" fill="#8DCFD1" mask="url(#mask-2)"></path>
                <path d="M73.0088496,7.82201299 C69.5044248,6.3487987 66.4799115,5.88058442 63.9946903,6.12691558 C60.450354,6.47814935 59.8818584,8.10019481 56.5127434,8.23685065 C52.6335398,8.39405844 51.3544248,6.3337987 47.5492035,6.48857143 C43.7507965,6.64305195 43.2358407,8.76944805 39.6980265,8.85487013 C35.7782301,8.94954545 34.664115,6.38211039 30.494531,6.33467532 C26.1612124,6.28538961 24.647885,9.02766234 20.5022478,8.85506494 C17.4066726,8.7262013 14.3536372,6.71474026 11.0651239,6.16412338 C8.51010619,5.73633117 6.91150442,6.38308442 0,9.11230519 L0,13.3441558 L73.0088496,13.3441558 L73.0088496,7.82201299" id="Fill-5" fill="#74C6CE" mask="url(#mask-2)"></path>
                <path d="M73.0750442,13.244026 C70.5820354,11.1922403 66.8926549,8.87551948 62.7136283,9.09779221 C58.3817699,9.32805195 57.4735398,12.0946753 52.8087611,12.4620779 C47.0361947,12.9167532 45.2995575,8.93883117 39.6435133,9.34646104 C34.2172035,9.73762987 33.120708,12.5711688 28.7301504,12.24 C24.282646,11.9045455 23.5471062,8.83217532 19.5048496,8.78892857 C15.6300265,8.74753247 14.4796991,11.5756169 10.1695487,12.0278571 C7.69844248,12.2871429 4.38053097,12.3626299 0,8.65646104 L0,15.7792208 L73.0516814,15.7792208 L73.0750442,13.244026" id="Fill-6" fill="#5ABEC3" mask="url(#mask-2)"></path>
                <path d="M0,12.3843506 C2.23893805,13.5921429 5.32769912,14.8483442 8.74052212,14.5103571 C12.1370885,14.174026 12.6894248,12.562013 15.9759912,12.321039 C20.5570531,11.9851948 21.7574159,14.9452597 26.5523451,14.878539 C30.8850796,14.8183442 31.2025221,12.3814286 35.7849469,12.1586688 C40.6129735,11.9239286 41.5439823,14.5657792 46.6526549,14.4508442 C51.2892035,14.3464286 51.5938938,12.1451299 56.030885,12.2113636 C60.480531,12.2775974 61.7567257,14.5150325 66.2686726,14.5038312 C69.2036283,14.496526 71.5486726,13.5429545 73.0088496,12.7975325 L73.0088496,18.7012987 L0,18.7012987 L0,12.3843506" id="Fill-7" fill="#479AAA" mask="url(#mask-2)"></path>
                <path d="M0.0756371681,17.1107143 C1.80283186,16.1625 4.49247788,15.0037013 7.72676991,15.0713961 C11.1149646,15.1425 11.9307168,16.4608442 15.9053186,16.762013 C20.0764602,17.0780844 20.6213982,15.7186364 24.9967699,15.8536364 C30.0304867,16.0089935 30.2726814,17.8288636 34.4682566,17.8173701 C39.646531,17.8032468 40.3742832,15.0227922 45.4660177,14.9996104 C50.1668142,14.9781818 50.6661947,17.3410714 55.3183186,17.2310065 C59.9266372,17.1219156 61.1210619,14.7593182 65.6145133,14.7330195 C68.8697345,14.7139286 71.4513274,15.9340909 73.0088496,16.8583442 L73.0088496,21.7207792 L0.066,21.7207792 L0.0756371681,17.1107143" id="Fill-8" fill="#37808B" mask="url(#mask-2)"></path>
                <path d="M73.0088496,20.6333766 C67.5575221,18.4600325 63.3142478,18.1875 60.5330973,18.3088636 C54.9153097,18.5539286 53.5515044,20.4804545 48.3435398,20.2459091 C42.9058407,20.001039 41.9674336,17.7900974 37.2074513,18.0505519 C33.0590885,18.2775974 32.8112478,20.0102922 28.6447788,20.1168506 C24.3258673,20.2273052 23.3682832,18.3969156 19.0945398,18.6102273 C15.1394071,18.8075649 14.9233009,20.4269805 11.5902035,20.288961 C8.18497345,20.1480195 6.84024779,18.3941883 2.91422124,18.4810714 C1.67959292,18.5083442 0.681415929,18.7067532 0,18.8684416 L0,24.3506494 L73.0088496,24.3506494 L73.0088496,20.6333766" id="Fill-9" fill="#1A5E70" mask="url(#mask-2)"></path>
            </g>
            <rect id="Rectangle" stroke="#979797" stroke-width="0.5" fill="#EE596C" x="27.409292" y="56.6461039" width="7.48230088" height="5.63636364"></rect>
            <g id="Group-15" transform="translate(0.000000, 93.701299)">
                <mask id="mask-4" fill="white">
                    <use xlink:href="#path-3"></use>
                </mask>
                <g id="Clip-14"></g>
                <path d="M74.1458407,0.0321428571 L92.9480531,0.0321428571 C103.195575,0.0321428571 111.536106,8.30746753 111.590619,18.561039 C111.591593,18.6292208 111.591593,18.6974026 111.591593,18.7655844 C111.591593,39.2961039 95.0876991,55.9704545 74.6306195,56.2305195 C74.5079646,56.2314935 74.3843363,56.2324675 74.2597345,56.2324675 C74.2237168,56.2324675 74.1886726,56.2334416 74.1526549,56.2334416 L4.78762832,56.2334416 C2.14587611,56.2334416 0.00428318584,54.0905844 0.00428318584,51.4470779 L0.00428318584,37.5 C0.00428318584,27.1529221 8.38667257,18.7655844 18.7267699,18.7655844 L74.0290265,18.7655844 C79.1902655,18.7655844 83.4685841,14.6347403 83.5075221,9.47045455 C83.5454867,4.26428571 79.340177,0.0321428571 74.1458407,0.0321428571" id="Fill-13" fill="url(#linearGradient-5)" mask="url(#mask-4)"></path>
            </g>
            <g id="Group-18" transform="translate(74.079646, 93.701299)" fill="url(#linearGradient-6)">
                <polyline id="Fill-16" points="0.0662337662 0.0321428571 0.0732337662 0.0321428571 0.0662337662 0.0321428571"></polyline>
            </g>
            <g id="Group-21" transform="translate(0.000000, 93.701299)">
                <mask id="mask-8" fill="white">
                    <use xlink:href="#path-7"></use>
                </mask>
                <g id="Clip-20"></g>
                <path d="M92.8692035,18.7334416 C92.8516814,8.40487013 84.4790265,0.036038961 74.1526549,0.0321428571 C79.3440708,0.036038961 83.5464602,4.26720779 83.5075221,9.4724026 C83.4676106,14.6357143 79.189292,18.7655844 74.0290265,18.7655844 L18.7268673,18.7655844 C8.38667257,18.7655844 0.00428318584,27.1529221 0.00428318584,37.5 L73.9861947,37.5 C84.300885,37.5 92.8857522,29.0551948 92.8692035,18.7334416" id="Fill-19" fill="url(#linearGradient-9)" mask="url(#mask-8)"></path>
            </g>
            <g id="Group-24" transform="translate(0.000000, 56.201299)">
                <mask id="mask-11" fill="white">
                    <use xlink:href="#path-10"></use>
                </mask>
                <g id="Clip-23"></g>
                <path d="M73.8937168,0.0652597403 L4.78762832,0.0652597403 C2.14587611,0.0652597403 0.00428318584,2.20811688 0.00428318584,4.85162338 L0.00428318584,32.7457792 C0.00428318584,35.3892857 2.14587611,37.5321429 4.78762832,37.5321429 L74.1555752,37.5321429 C89.6616814,37.537013 102.229912,50.1165584 102.229912,65.6327922 C102.229912,81.1519481 89.6568142,93.7334416 74.1458407,93.7334416 C100.04646,93.7334416 121.034071,72.6837662 120.952301,46.7483766 C120.870531,20.9006494 99.7261947,0.0652597403 73.8937168,0.0652597403" id="Fill-22" fill="url(#linearGradient-12)" mask="url(#mask-11)"></path>
            </g>
            <g id="Group-27" transform="translate(0.000000, 75.000000)">
                <mask id="mask-14" fill="white">
                    <use xlink:href="#path-13"></use>
                </mask>
                <g id="Clip-26"></g>
                <path d="M73.9063717,0 L0.00428318584,0 L0.00428318584,13.9470779 C0.00428318584,16.5905844 2.14587611,18.7334416 4.78762832,18.7334416 L74.1555752,18.7334416 C89.6616814,18.7392857 102.229912,31.3178571 102.229912,46.8340909 C102.229912,62.3532468 89.6568142,74.9347403 74.1458407,74.9347403 C74.3074336,74.9347403 74.4690265,74.9327922 74.6306195,74.9318182 C95.0662832,74.6717532 111.557522,58.0324675 111.591593,37.5311688 C111.625664,16.8886364 94.5367257,0 73.9063717,0" id="Fill-25" fill="url(#linearGradient-15)" mask="url(#mask-14)"></path>
            </g>
            <g id="Group-30">
                <mask id="mask-17" fill="white">
                    <use xlink:href="#path-16"></use>
                </mask>
                <g id="Clip-29"></g>
                <path d="M74.1458407,56.2665584 L92.9480531,56.2665584 C103.195575,56.2665584 111.536106,47.9912338 111.590619,37.7376623 C111.591593,37.6694805 111.591593,37.6012987 111.591593,37.5331169 C111.591593,17.0022078 95.0876991,0.328441558 74.6306195,0.0686688312 C74.5079646,0.0674025974 74.3843363,0.066525974 74.2597345,0.0662337662 C74.2237168,0.0661363636 74.1886726,0.0655519481 74.1526549,0.0655519481 L4.78762832,0.0655519481 C2.14587611,0.0655519481 0.00428318584,2.20840909 0.00428318584,4.85172078 L0.00428318584,18.7991883 C0.00428318584,29.145487 8.38657522,37.5331169 18.7267699,37.5331169 L74.0290265,37.5331169 C79.1902655,37.5331169 83.4685841,41.663961 83.5075221,46.8282468 C83.5454867,52.0344156 79.340177,56.2665584 74.1458407,56.2665584" id="Fill-28" fill="url(#linearGradient-18)" mask="url(#mask-17)"></path>
            </g>
            <g id="Group-33" transform="translate(74.079646, 56.201299)" fill="url(#linearGradient-19)">
                <polyline id="Fill-31" points="0.0662337662 0.0652597403 0.0732337662 0.0652597403 0.0662337662 0.0652597403"></polyline>
            </g>
            <g id="Group-36" transform="translate(0.000000, 18.798701)">
                <mask id="mask-21" fill="white">
                    <use xlink:href="#path-20"></use>
                </mask>
                <g id="Clip-35"></g>
                <path d="M92.8682301,18.7665584 C92.8516814,29.0951299 84.4790265,37.463961 74.1526549,37.4678571 C79.3440708,37.463961 83.5464602,33.2327922 83.5075221,28.0275974 C83.4676106,22.8642857 79.189292,18.7344156 74.0290265,18.7344156 L18.7267699,18.7344156 C8.38667257,18.7344156 0.00428318584,10.3467857 0.00428318584,0.000487012987 L73.9861947,0.000487012987 C84.300885,0.000487012987 92.8857522,8.44480519 92.8682301,18.7665584" id="Fill-34" fill="url(#linearGradient-22)" mask="url(#mask-21)"></path>
            </g>
            <g id="Group-39">
                <mask id="mask-24" fill="white">
                    <use xlink:href="#path-23"></use>
                </mask>
                <g id="Clip-38"></g>
                <path d="M73.8937168,93.7334416 L4.78762832,93.7334416 C2.14587611,93.7334416 0.00428318584,91.5905844 0.00428318584,88.9470779 L0.00428318584,61.0529221 C0.00428318584,58.4094156 2.14587611,56.2665584 4.78762832,56.2665584 L74.1555752,56.2665584 C89.6616814,56.2616883 102.229912,43.6821429 102.229912,28.1660065 C102.229912,12.6465584 89.6568142,0.0655519481 74.1458407,0.0655519481 C100.04646,0.0655519481 121.034071,21.1154221 120.952301,47.0503247 C120.870531,72.8980519 99.7261947,93.7334416 73.8937168,93.7334416" id="Fill-37" fill="url(#linearGradient-25)" mask="url(#mask-24)"></path>
            </g>
            <g id="Group-42">
                <mask id="mask-27" fill="white">
                    <use xlink:href="#path-26"></use>
                </mask>
                <g id="Clip-41"></g>
                <path d="M73.9063717,75 L0.00428318584,75 L0.00428318584,61.0529221 C0.00428318584,58.4094156 2.14587611,56.2665584 4.78762832,56.2665584 L74.1555752,56.2665584 C89.6616814,56.2607143 102.229912,43.6821429 102.229912,28.1659091 C102.229912,12.646461 89.6568142,0.0655519481 74.1458407,0.0655519481 C74.3074336,0.0655519481 74.4690265,0.0669155844 74.6306195,0.0685714286 C95.0662832,0.32775974 111.557522,16.9674351 111.591593,37.4688312 C111.625664,58.1113636 94.5367257,75 73.9063717,75" id="Fill-40" fill="url(#linearGradient-28)" mask="url(#mask-27)"></path>
            </g>
        </g>
    </g>
</svg>